<?xml version="1.0" encoding="iso-8859-1"?>
<!-- Generator: Adobe Illustrator 19.0.0, SVG Export Plug-In . SVG Version: 6.00 Build 0)  -->
<svg version="1.1" id="Layer_1" xmlns="http://www.w3.org/2000/svg" xmlns:xlink="http://www.w3.org/1999/xlink" x="0px" y="0px"
	 viewBox="0 0 512 512" style="enable-background:new 0 0 512 512;" xml:space="preserve">
<g>
	<g>
		<path d="M303.371,150.475l-82.154-57.666v-75.93C221.217,7.557,213.66,0,204.338,0h-55.385c-9.322,0-16.879,7.557-16.879,16.879
			v75.93L49.92,150.475c-4.502,3.161-7.182,8.316-7.182,13.815v330.831c0,9.322,7.557,16.879,16.879,16.879h234.057
			c9.322,0,16.879-7.557,16.879-16.879V164.29C310.553,158.79,307.873,153.635,303.371,150.475z M165.832,33.758h21.627v50.637
			h-21.627V33.758z M76.496,478.242V173.065l78.228-54.911h43.842l78.229,54.911v305.177H76.496z"/>
	</g>
</g>
<g>
	<g>
		<path d="M230.365,229.45H122.927c-18.305,0-33.196,14.892-33.196,33.196v74.48c0,18.305,14.891,33.196,33.196,33.196h107.438
			c18.304,0,33.196-14.891,33.196-33.196v-74.48C263.56,244.341,248.668,229.45,230.365,229.45z M229.802,336.563H123.489v-73.354
			h106.313V336.563z"/>
	</g>
</g>
<g>
	<g>
		<path d="M452.379,27.569H282.463c-9.322,0-16.879,7.557-16.879,16.879s7.556,16.879,16.879,16.879h169.917
			c9.322,0,16.879-7.557,16.879-16.879S461.701,27.569,452.379,27.569z"/>
	</g>
</g>
<g>
	<g>
		<path d="M459.688,145.699L344.91,90.561c-8.402-4.039-18.487-0.497-22.523,7.905c-4.036,8.402-0.496,18.487,7.906,22.523
			l114.778,55.138c8.401,4.039,18.487,0.497,22.523-7.905C471.629,159.82,468.09,149.736,459.688,145.699z"/>
	</g>
</g>
<g>
</g>
<g>
</g>
<g>
</g>
<g>
</g>
<g>
</g>
<g>
</g>
<g>
</g>
<g>
</g>
<g>
</g>
<g>
</g>
<g>
</g>
<g>
</g>
<g>
</g>
<g>
</g>
<g>
</g>
</svg>
